<?xml version="1.0" encoding="UTF-8"?>
<svg viewBox="0 0 471 314" xmlns="http://www.w3.org/2000/svg">
 <path d="m0 0h471v314h-471z" fill="#d84b24" fill-rule="evenodd" stroke="#d84b24"/>
 <path transform="matrix(.94458 0 0 1.0126 9.2473 .65827)" d="m290.62 136.52a100.06 93.338 0 1 1 -200.11 0 100.06 93.338 0 1 1 200.11 0z" fill="#fff" fill-rule="evenodd" stroke="#fff" stroke-width="1.0225"/>
 <path transform="matrix(.94122 0 0 .96191 -12.132 -1.9265)" d="m279.29 146.14a66.429 65 0 1 1 -132.86 0 66.429 65 0 1 1 132.86 0z" fill="#d84b24" fill-rule="evenodd" stroke="#d84b24" stroke-width="1.051"/>
 <path d="m64.347 202.98c13.742 0.34016 26.371-6.8619 33.234-19.092 4.0069 10.371 10.017 18.267 17.324 26.163-9.2024 9.9071-19.114 18.963-34.295 20.506l-16.263-27.577z" fill="#fff" fill-rule="evenodd" stroke="#fff"/>
 <path d="m279.66 185.66c-5.4455 9.2391-11.416 18.216-18.738 26.516 10.96 10.724 20.742 16.499 34.648 20.506 8.2689-10.115 14.475-19.818 18.031-28.991-12.444 0.70331-25.717-5.0598-33.941-18.031z" fill="#fff" fill-rule="evenodd" stroke="#fff"/>
 <path d="m159.1 16.308 44.548 0.70711c-11.213 12.389-1.3893 25.213 6.7175 30.052l-39.952 6.7175c-7.998-10.371-11.749-24.984-11.314-37.477z" fill="#fff" fill-rule="evenodd" stroke="#fff"/>
 <path d="m153.82 38.792 4.455-28.475c-0.52025 11.73 2.8951 38.475 18.696 51.922 9.7668 8.3118 19.631 14.212 28.798 16.295l-24.749-2.4749c-6.16-3.9474-23.161-21.468-27.201-37.266z" fill="#d84b24" fill-rule="evenodd" stroke="#d84b24"/>
</svg>
