<?xml version="1.0" encoding="UTF-8"?>
<svg viewBox="0 0 1000.0001 700" xmlns="http://www.w3.org/2000/svg">
 <path d="m0 0h1e3v700h-1e3v-700z" fill="#0069cf"/>
 <g transform="translate(1344 -181.99)" fill="#fff">
  <path d="m-1001.9 800.33c3.575-0.6063 24.725-4.6611 47-9.0107 269.33-52.591 339.15-66.003 348.5-66.951 38.963-3.9451 140.27-1.1079 196 5.4892 11.13 1.3175 43.099 5.9101 56 8.0448 6.638 1.0984 3.3589-0.87803-19.021-11.465-45.22-21.391-127.99-51.514-167.98-61.133-12.199-2.9346-51.449-10.039-66-11.947-27.26-3.5738-59.967-4.257-76.905-1.6064-5.4476 0.8525-67.323 12.778-137.5 26.502-219.62 42.948-245.34 47.892-255.1 49.045-38.661 4.568-149.44 1.5568-204.5-5.5588-19.656-2.5402-44.931-6.2993-50.015-7.4386-5.0626-1.1346-6.3207-0.91498-4.2594 0.74345 3.8654 3.11 44.581 21.156 72.774 32.254 46.917 18.47 91.311 33.509 116.91 39.605 22.836 5.4383 69.812 12.921 90.595 14.43 13.999 1.0165 45.021 0.43493 53.5-1.003z"/>
  <path d="m-659.75 381.16c-9.668 0.07972-18.242 0.59976-24.594 1.5938-5.4477 0.85251-67.323 12.777-137.5 26.5-219.62 42.948-245.34 47.91-255.09 49.062-38.661 4.568-149.44 1.553-204.5-5.5625-19.656-2.5402-44.916-6.2983-50-7.4375-5.0626-1.1346-6.3426-0.93968-4.2813 0.71875 3.8655 3.11 44.588 21.183 72.781 32.281 46.917 18.47 91.312 33.498 116.91 39.594 13.902 3.3108 51.683 9.8908 70.781 12.344 8.4766 1.0887 15.87 2.2743 16.438 2.625s10.488 14.817 22.031 32.156c13.838 20.786 20.652 31.879 20 32.531-1.2687 1.2687-42.103 9.3236-57.156 11.281-18.921 2.4606-52.392 3.3929-85.812 2.375-76.004-2.3148-99.892-4.1267-150.31-11.438-9.1476-1.3264-18.762-2.8832-21.375-3.4688-5.0626-1.1346-6.3426-0.93968-4.2813 0.71875 3.8655 3.1099 44.588 21.183 72.781 32.281 46.917 18.47 91.312 33.498 116.91 39.594 22.836 5.4383 69.811 12.928 90.594 14.438 13.999 1.0165 45.021 0.43797 53.5-1 3.575-0.60629 24.725-4.6817 47-9.0312 269.33-52.591 339.15-65.99 348.5-66.938 38.963-3.9451 140.27-1.1284 196 5.4688 11.13 1.3176 43.099 5.9279 56 8.0625 6.638 1.0984 3.3488-0.88225-19.031-11.469-45.22-21.391-127.98-51.506-167.97-61.125-14.942-3.5944-53.498-10.407-71.719-12.656-7.5379-0.93066-14.103-1.9274-14.594-2.25-2.1372-1.4045-43.283-64.409-42.531-65.125 1.3421-1.2787 51.805-10.688 63.844-11.906 38.981-3.9438 140.27-1.1279 196 5.4688 11.13 1.3175 43.099 5.9279 56 8.0625 6.638 1.0984 3.3488-0.88225-19.031-11.469-45.22-21.391-127.98-51.506-167.97-61.125-12.199-2.9346-51.449-10.061-66-11.969-17.037-2.2337-36.199-3.3204-52.312-3.1875zm-110.09 105.16c1.1455 0 36.906 53.565 36.906 55.281 0 0.93036-25.935 6.3672-90.75 19.031-49.912 9.7522-91.542 17.699-92.5 17.688-1.157-0.0135-7.7805-9.064-19.75-27-9.905-14.843-18-27.417-18-27.938s0.7875-1.1827 1.75-1.4688c2.2513-0.66894 181.17-35.594 182.34-35.594z"/>
  <path d="m-1001.9 412.33c3.575-0.6063 24.725-4.6611 47-9.0107 269.33-52.591 339.15-66.003 348.5-66.951 38.963-3.9451 140.27-1.1079 196 5.4892 11.13 1.3175 43.099 5.9101 56 8.0448 6.638 1.0984 3.3589-0.87803-19.021-11.465-45.22-21.391-127.99-51.514-167.98-61.133-12.199-2.9346-51.449-10.039-66-11.947-27.26-3.5738-59.967-4.257-76.905-1.6064-5.4476 0.8525-67.323 12.778-137.5 26.502-219.62 42.948-245.34 47.892-255.1 49.045-38.661 4.568-149.44 1.5568-204.5-5.5588-19.656-2.5402-44.931-6.2993-50.015-7.4386-5.0626-1.1346-6.3207-0.91498-4.2594 0.74345 3.8654 3.11 44.581 21.156 72.774 32.254 46.917 18.47 91.311 33.509 116.91 39.605 22.836 5.4383 69.812 12.921 90.595 14.43 13.999 1.0165 45.021 0.43493 53.5-1.003z"/>
 </g>
</svg>
