<?xml version="1.0" encoding="UTF-8"?>
<svg viewBox="0 0 900 600" xmlns="http://www.w3.org/2000/svg">
 <path d="m0 0h900v600h-900v-600z" fill="#fdfdfd"/>
 <g transform="translate(-193.56 402.27)">
  <path d="m459.81 75.495c-44.41-0.18456-63.75-0.58923-63.75-1.3339 0-0.92151 26.688-47.589 64.001-111.92 5.9021-10.175 33.59-58.1 61.529-106.5s54.825-94.975 59.747-103.5 11.208-19.455 13.97-24.288 5.5235-8.6215 6.137-8.4174 10.112 15.973 21.107 35.041 20.445 34.526 21 34.349 9.183-14.466 19.174-31.753c23.062-39.905 22.173-38.533 23.849-36.805 0.73323 0.75563 10.428 17.124 21.544 36.374l70.432 122c27.622 47.85 57.113 98.925 65.537 113.5 40.634 70.305 46.974 81.372 46.974 81.997 0 1.5466-212.22 2.1631-431.25 1.2528zm49.022-51.75 59.299-102.69c20.861-36.129 37.921-66.279 37.911-67-0.0317-2.2486-31.668-56.296-33.113-56.57-0.7878-0.14916-3.125 2.821-5.5082 7-2.2769 3.9925-9.2056 16.034-15.397 26.759-45.499 78.814-80.983 140.26-100.49 174-30.529 52.812-31.381 54.339-30.823 55.243 0.26646 0.43115 15.395 0.66538 33.619 0.52051l33.134-0.2634 21.369-37zm357.05 35.721c-0.17575-0.9785-21.099-37.766-46.496-81.75l-75.052-129.97c-17.053-29.528-29.466-50-30.317-50-1.5502 0-112.09 190.45-111.29 191.75 0.79598 1.306 81.339 0.91724 81.339-0.3926 0-0.62843-2.6183-5.6909-5.8184-11.25l-16.065-27.889c-5.6358-9.7801-10.105-18.637-9.9316-19.682 0.49992-3.0128 34.188-60.973 35.459-61.006 0.62885-0.01628 3.1333 3.4579 5.5655 7.7204s24.834 43.075 49.783 86.25 47.143 81.65 49.321 85.5 4.8295 8.2375 5.8921 9.75l1.932 2.75h33.001c31.089 0 32.983-0.10312 32.682-1.7791z" fill="#1c9433"/>
 </g>
</svg>
