<?xml version="1.0" encoding="UTF-8"?>
<svg viewBox="0 0 400 280" xmlns="http://www.w3.org/2000/svg">
 <path d="m0 0h400v280h-400z" fill="#fff" fill-rule="evenodd"/>
 <path d="m196 43c13.548 11.821 30.872 25.532 52 26 20.875 0.46795 28-7.0078 42-13 0 0-14.798 38.127-16 51-1.2041 12.901-0.77028 12.161 0 23 0.7689 10.819 12.101 69.279 52 95h-260c33.795-30.12 54.448-67.905 54-118h40c2.7358 23.732 1.374 57.811 16 66 14.079 7.8824 20.422-13.528 20-21h18c-0.95905 10.671 6.0297 21.337 16 21 10.99-0.37153 17.975-26.593 18-43 0.02481-16.05-3.3643-20.542-12-23s-29.266 12.362-40 23v-87z" fill="#04773d" fill-rule="evenodd" stroke="#04773d"/>
</svg>
