<?xml version="1.0" encoding="UTF-8"?>
<svg viewBox="0 0 1050 699.99994" xmlns="http://www.w3.org/2000/svg">
 <g transform="translate(66.844 -174.54)">
  <path d="m-66.844 174.54h1050v700h-1050v-700z" fill="#0068b2"/>
  <path d="m393.48 722.28c12.46-3.1868 22.71-9.1712 32.567-19.014 7.188-7.178 9.3858-10.211 14.131-19.5 3.0908-6.05 6.5699-13.806 7.7315-17.235 2.6085-7.7004 5.1156-22.757 5.1227-30.765 0.00705-7.9844-2.0227-22.654-3.3728-24.376-0.84442-1.0771-2.9871-1.2323-9.8562-0.71373-10.095 0.76207-29.778 4.2002-30.991 5.4133-0.45104 0.45104-0.35021 4.1331 0.22408 8.1824 2.5924 18.279-4.426 38.449-17.213 49.47-6.1293 5.2825-9.3697 6.7216-16.408 7.2865-4.9977 0.40117-7.0719 0.08159-10.621-1.6364-15.693-7.5969-20.518-21.11-12.961-36.301 6.2998-12.664 16.023-20.787 34.202-28.573 19.043-8.1563 35.045-12.023 58-14.014l8.5-0.7373 0.72474-12c0.39861-6.6 1.5889-16.725 2.645-22.5 1.1183-6.1146 1.5514-10.892 1.0372-11.438-1.154-1.2258-25.072 0.81647-40.548 3.4622-23.291 3.9819-44.909 12.031-63.859 23.778-10.504 6.5116-27.087 19.961-32.127 26.057-28.799 34.829-18.395 87.693 21.435 108.92 4.4078 2.3486 11.317 5.1352 15.353 6.1925 10.174 2.665 25.967 2.6852 36.284 0.04657zm159.56 0.92091c19.787-3.196 37.615-14.528 48.349-30.732 19.004-28.688 15.931-63.919-7.8491-89.99-15.915-17.448-36.14-28.636-59-32.638-10.69-1.8716-10.572-1.9487-12.938 8.4508-2.5405 11.17-5.3935 31.974-4.3848 31.974 0.25038 0 3.1254 0.46999 6.3889 1.0444 18.394 3.2376 35.185 15.228 42.303 30.209 3.8982 8.2038 4.5659 12.332 3.1207 19.294-0.99521 4.7939-2.0102 6.5679-6.0944 10.652-6.2626 6.2626-11.716 8.7503-19.245 8.7786-7.0279 0.02639-11.025-1.7104-17.655-7.6714-5.9214-5.3238-11.068-13.538-13.881-22.157-5.1112-15.659-5.367-49.006-0.54578-71.149 4.0089-18.412 4.3586-17.019-5.0695-20.194-4.4-1.4815-13.428-5.419-20.063-8.75s-12.58-6.0564-13.211-6.0564-1.5883 1.6875-2.1262 3.75c-3.3186 12.725-4.2989 17.387-6.6793 31.769-3.5421 21.401-3.7049 40.538-0.50168 58.981 2.8055 16.153 10.734 40.614 16.08 49.613 15.265 25.694 44.165 39.48 73.002 34.822zm-196-158.95c4.675-1.1407 13.169-4.3038 18.875-7.029l10.375-4.9549-0.62689-3.2515c-0.86304-4.4764-15.36-33.713-17.035-34.356-0.74605-0.28629-4.3742 0.84778-8.0625 2.5202-12.522 5.6776-26.628 7.4083-37.474 4.5978-21.779-5.6435-31.78-17.88-27.593-33.763 1.994-7.5646 5.5941-13.096 10.732-16.49 3.8663-2.5539 4.9304-2.7601 14.244-2.7601 9.8133 0 10.291 0.10827 19.065 4.3223 7.5959 3.648 10.331 5.6838 17.533 13.05 15.307 15.657 27.454 34.076 36.023 54.628 4.7919 11.493 4.3133 11.207 13.596 8.1183 4.317-1.4366 14.021-3.6474 21.564-4.913s13.978-2.5641 14.299-2.8856c0.91762-0.91761-6.1264-17.993-13.565-32.885-15.124-30.276-31.867-49.674-59.81-69.293-12.525-8.7944-20.98-12.731-32.346-15.061-34.331-7.0385-69.116 12.736-81.099 46.103-8.3065 23.13-4.878 46.115 10.011 67.115 7.9465 11.208 23.034 21.771 36.796 25.763 16.638 4.8257 38.25 5.3913 54.5 1.4262zm252.5-0.68861c20.879-4.6977 38.443-18.489 47.953-37.652 5.405-10.891 7.5121-19.908 7.5121-32.146 0-11.032-1.8199-20.018-5.8578-28.923-8.4184-18.566-22.909-31.834-42.442-38.861-11.584-4.1672-27.527-4.9033-39.691-1.8324-20.369 5.1426-43.225 20.468-55.58 37.268-4.3841 5.9613-12.395 20.422-12.395 22.375 0 0.8243 2.3625 3.0091 5.25 4.8551 5.6882 3.6365 29.163 15.619 30.6 15.619 0.48422 0 2.9094-3.4919 5.3892-7.7598 10.341-17.798 28.516-29.24 46.444-29.24 11.007 0 19.869 6.1597 23.341 16.225 5.503 15.949-1.021 28.046-18.785 34.832-20.175 7.7069-56.809-0.5619-90.602-20.45-5.2395-3.0836-10.161-5.6065-10.937-5.6065s-3.3768 2.8029-5.7799 6.2287-9.0144 11.037-14.692 16.913l-10.323 10.685 3.297 2.4492c11.346 8.4286 40.118 23.183 54.797 28.1 13.285 4.4505 28.676 7.6291 41.5 8.5706 13.704 1.0062 32.573 0.24754 41-1.6485zm-148.94-47.649c13.537-11.374 30.536-29.241 38.7-40.678 8.7244-12.222 18.526-32.165 23.577-47.971 5.538-17.332 6.5374-23.294 5.9178-35.305-1.5955-30.929-21.548-55.867-52.256-65.312-4.5971-1.414-9.1564-1.8396-19.5-1.8207-12.11 0.02222-14.324 0.30929-21.5 2.7887-11.281 3.8975-20.824 9.8619-28.979 18.113-8.1191 8.2139-12.637 15.396-16.903 26.87-2.9103 7.8276-3.0341 8.8068-2.9908 23.665 0.03945 13.541 0.3824 16.763 2.7129 25.491 4.7713 17.87 13.241 32.784 25.478 44.864 5.6743 5.6013 7.343 6.7286 9.1236 6.1635 2.887-0.91632 28.059-25.349 28.059-27.235 0-0.80818-2.5129-4.2402-5.5842-7.6267-6.2396-6.88-12.7-19.181-14.503-27.613-1.6759-7.8381-0.69108-21.376 2.0115-27.652 5.4128-12.569 17.823-18.082 31.462-13.977 11.104 3.3417 16.541 11.636 17.35 26.465 0.61282 11.246-1.4616 20.032-7.3373 31.077-10.255 19.278-22.488 34.691-39.237 49.436-5.8549 5.1546-9.8181 9.3589-9.4266 10 0.37148 0.60841 3.0769 4.6387 6.012 8.9563s7.7965 12.755 10.803 18.75 5.8277 10.9 6.2692 10.9 5.2752-3.7578 10.742-8.3506z" fill="#fff"/>
 </g>
</svg>
