<?xml version="1.0" encoding="UTF-8"?>
<svg viewBox="0 0 390 260" xmlns="http://www.w3.org/2000/svg">
 <path d="m0 0h390v260h-390z" fill="#343c6a" fill-rule="evenodd"/>
 <path d="m175.71 37.766 18.244 8.0812 18.331-8.7342 0.35714 53.686 41.564-33.335 4.9028 20.203 18.479 8.7342-42.217 33.692 52.528 11.617-13.132 16.162 5.0508 19.698-53.033-11.112 24.392 48.339-21.361-0.35714-12.479 16.52-23.529-48.844-23.147 49.202-12.566-16.877-21.422 0.56635 23.295-48.697-51.997 11.765 4.8162-19.846-13.698-16.52 52.737-11.765-41.564-33.753 18.836-8.8822 4.0406-20.203 42.426 33.988 0.14794-53.329z" fill="#fff" fill-rule="evenodd"/>
 <path d="m185.62 112.64 8.3338-66.291 7.5761 66.67 56.569-34.85-45.962 46.846 61.619 22.602-65.407-6.9448 21.971 63.766-36.365-56.569-35.86 55.811 21.718-62.882-66.796 6.9448 62.756-22.476-46.341-47.73 56.19 35.103z" fill="#c3383d" fill-rule="evenodd" stroke="#000" stroke-width=".001"/>
</svg>
