<?xml version="1.0" encoding="UTF-8"?>
<svg viewBox="0 0 900 600" xmlns="http://www.w3.org/2000/svg">
 <path d="m0 0h900v600h-900z" fill="#007524"/>
 <path d="m450 122.62c-1.5192 0-3.0214 0.02699-4.5312 0.0625-2.7666 0.06506-5.5161 0.21654-8.25 0.40625-1.5744 0.10926-3.1535 0.22813-4.7188 0.375v229.53l-5 6v-234.94l-0.5 0.0625c-87.401 11.295-155 85.415-155 175.88 0 76.077 47.81 141.04 115 166.5v-35.875c-48.515-23.457-82-73.156-82-130.62 1e-5 -59.415 35.811-110.51 87-132.91v297.91l58-78.031 58 78.031v-297.91c51.197 22.389 87 73.484 87 132.91 0 57.469-33.485 107.17-82 130.62v35.875c67.19-25.459 115-90.423 115-166.5 0-90.632-67.858-164.92-155.5-176v235l-5-6v-229.53c-2.4453-0.23709-4.9026-0.42874-7.375-0.5625-0.32474-0.01757-0.64355-0.04669-0.96875-0.0625h-0.09375c-1.4795-0.07116-2.9799-0.12074-4.4688-0.15625h-0.0625c-1.5098-0.03551-3.0121-0.0625-4.5312-0.0625z" fill="#fff"/>
</svg>
