<?xml version="1.0" encoding="UTF-8"?>
<svg viewBox="0 0 438 318" xmlns="http://www.w3.org/2000/svg">
 <path d="m0 0h438v318h-438z" fill="#990822" fill-rule="evenodd"/>
 <path transform="matrix(.92393 0 0 1.0707 9.587 -15.115)" d="m196.43 234.07a35.179 30.357 0 1 1 -70.357 0 35.179 30.357 0 1 1 70.357 0z" fill="#fff" fill-rule="evenodd" stroke="#fff" stroke-width="1.0054"/>
 <path d="m68.929 40.5 164.64 106.43c14.814 10.062 34.646 21.74 34.643 39.286 0.08851 22.293-19.413 31.038-34.643 41.429l-58.929 38.571c55.725-10.357 85.866-15 140.71-25.357 22.542-5.2323 46.619-9.8834 46.429-37.143-0.67264-16.635-11.95-28.361-20.357-35-14.506-10.192-43.486-32.653-86.786-48.929l-185.71-79.286z" fill="#fff" fill-rule="evenodd" stroke="#fff"/>
 <path d="m120 276.21 30-18.929 16.071 8.9286-46.071 10z" fill="#fff" fill-rule="evenodd" stroke="#fff"/>
</svg>
